G04 #@! TF.FileFunction,Legend,Top*
%FSLAX46Y46*%
G04 Gerber Fmt 4.6, Leading zero omitted, Abs format (unit mm)*
G04 Created by KiCad (PCBNEW 4.0.4-stable) date 02/22/17 18:27:42*
%MOMM*%
%LPD*%
G01*
G04 APERTURE LIST*
%ADD10C,0.100000*%
%ADD11C,0.150000*%
%ADD12C,0.300000*%
%ADD13C,0.222250*%
%ADD14C,0.120000*%
%ADD15C,0.050000*%
%ADD16C,0.381000*%
%ADD17C,0.127000*%
G04 APERTURE END LIST*
D10*
D11*
X163830000Y-70485000D02*
X135255000Y-70485000D01*
X165100000Y-69215000D02*
X165100000Y-56515000D01*
X163830000Y-55245000D02*
X137160000Y-55245000D01*
X165100000Y-56515000D02*
G75*
G03X163830000Y-55245000I-1270000J0D01*
G01*
X163830000Y-70485000D02*
G75*
G03X165100000Y-69215000I0J1270000D01*
G01*
D12*
X156527572Y-68687143D02*
X157670429Y-68687143D01*
D11*
X137160000Y-55245000D02*
X135255000Y-55245000D01*
X135255000Y-55245000D02*
X135255000Y-70485000D01*
D12*
X149669572Y-57130143D02*
X150812429Y-57130143D01*
X149669572Y-68560143D02*
X150812429Y-68560143D01*
X150241000Y-69131571D02*
X150241000Y-67988714D01*
X156527572Y-57130143D02*
X157670429Y-57130143D01*
X157099000Y-57701571D02*
X157099000Y-56558714D01*
X158520000Y-68012571D02*
X158805714Y-68012571D01*
X158948572Y-68084000D01*
X159091429Y-68226857D01*
X159162857Y-68512571D01*
X159162857Y-69012571D01*
X159091429Y-69298286D01*
X158948572Y-69441143D01*
X158805714Y-69512571D01*
X158520000Y-69512571D01*
X158377143Y-69441143D01*
X158234286Y-69298286D01*
X158162857Y-69012571D01*
X158162857Y-68512571D01*
X158234286Y-68226857D01*
X158377143Y-68084000D01*
X158520000Y-68012571D01*
X159805715Y-68012571D02*
X159805715Y-69226857D01*
X159877143Y-69369714D01*
X159948572Y-69441143D01*
X160091429Y-69512571D01*
X160377143Y-69512571D01*
X160520001Y-69441143D01*
X160591429Y-69369714D01*
X160662858Y-69226857D01*
X160662858Y-68012571D01*
X161162858Y-68012571D02*
X162020001Y-68012571D01*
X161591430Y-69512571D02*
X161591430Y-68012571D01*
X158345286Y-57828571D02*
X158345286Y-56328571D01*
X159059572Y-57828571D02*
X159059572Y-56328571D01*
X159916715Y-57828571D01*
X159916715Y-56328571D01*
D13*
X137943167Y-56874833D02*
X138070167Y-56917167D01*
X138281834Y-56917167D01*
X138366501Y-56874833D01*
X138408834Y-56832500D01*
X138451167Y-56747833D01*
X138451167Y-56663167D01*
X138408834Y-56578500D01*
X138366501Y-56536167D01*
X138281834Y-56493833D01*
X138112501Y-56451500D01*
X138027834Y-56409167D01*
X137985501Y-56366833D01*
X137943167Y-56282167D01*
X137943167Y-56197500D01*
X137985501Y-56112833D01*
X138027834Y-56070500D01*
X138112501Y-56028167D01*
X138324167Y-56028167D01*
X138451167Y-56070500D01*
X138832168Y-56917167D02*
X138832168Y-56028167D01*
X138832168Y-56451500D02*
X139340168Y-56451500D01*
X139340168Y-56917167D02*
X139340168Y-56028167D01*
X139763501Y-56917167D02*
X139763501Y-56028167D01*
X139975167Y-56028167D01*
X140102167Y-56070500D01*
X140186834Y-56155167D01*
X140229167Y-56239833D01*
X140271501Y-56409167D01*
X140271501Y-56536167D01*
X140229167Y-56705500D01*
X140186834Y-56790167D01*
X140102167Y-56874833D01*
X139975167Y-56917167D01*
X139763501Y-56917167D01*
X140652501Y-56917167D02*
X140652501Y-56028167D01*
X141160501Y-56917167D01*
X141160501Y-56028167D01*
X137773834Y-55874920D02*
X141372167Y-55874920D01*
X138281834Y-59372500D02*
X138239500Y-59414833D01*
X138112500Y-59457167D01*
X138027834Y-59457167D01*
X137900834Y-59414833D01*
X137816167Y-59330167D01*
X137773834Y-59245500D01*
X137731500Y-59076167D01*
X137731500Y-58949167D01*
X137773834Y-58779833D01*
X137816167Y-58695167D01*
X137900834Y-58610500D01*
X138027834Y-58568167D01*
X138112500Y-58568167D01*
X138239500Y-58610500D01*
X138281834Y-58652833D01*
X139086167Y-59457167D02*
X138662834Y-59457167D01*
X138662834Y-58568167D01*
X139890501Y-59457167D02*
X139594167Y-59033833D01*
X139382501Y-59457167D02*
X139382501Y-58568167D01*
X139721167Y-58568167D01*
X139805834Y-58610500D01*
X139848167Y-58652833D01*
X139890501Y-58737500D01*
X139890501Y-58864500D01*
X139848167Y-58949167D01*
X139805834Y-58991500D01*
X139721167Y-59033833D01*
X139382501Y-59033833D01*
X137562167Y-58414920D02*
X140059834Y-58414920D01*
X138133667Y-61150500D02*
X138049001Y-61108167D01*
X137922001Y-61108167D01*
X137795001Y-61150500D01*
X137710334Y-61235167D01*
X137668001Y-61319833D01*
X137625667Y-61489167D01*
X137625667Y-61616167D01*
X137668001Y-61785500D01*
X137710334Y-61870167D01*
X137795001Y-61954833D01*
X137922001Y-61997167D01*
X138006667Y-61997167D01*
X138133667Y-61954833D01*
X138176001Y-61912500D01*
X138176001Y-61616167D01*
X138006667Y-61616167D01*
X138557001Y-61997167D02*
X138557001Y-61108167D01*
X139065001Y-61997167D01*
X139065001Y-61108167D01*
X139488334Y-61997167D02*
X139488334Y-61108167D01*
X139700000Y-61108167D01*
X139827000Y-61150500D01*
X139911667Y-61235167D01*
X139954000Y-61319833D01*
X139996334Y-61489167D01*
X139996334Y-61616167D01*
X139954000Y-61785500D01*
X139911667Y-61870167D01*
X139827000Y-61954833D01*
X139700000Y-61997167D01*
X139488334Y-61997167D01*
X137964334Y-68728167D02*
X138260667Y-69617167D01*
X138557000Y-68728167D01*
X138853334Y-69617167D02*
X138853334Y-68728167D01*
X139446000Y-68728167D02*
X139615333Y-68728167D01*
X139700000Y-68770500D01*
X139784667Y-68855167D01*
X139827000Y-69024500D01*
X139827000Y-69320833D01*
X139784667Y-69490167D01*
X139700000Y-69574833D01*
X139615333Y-69617167D01*
X139446000Y-69617167D01*
X139361333Y-69574833D01*
X139276667Y-69490167D01*
X139234333Y-69320833D01*
X139234333Y-69024500D01*
X139276667Y-68855167D01*
X139361333Y-68770500D01*
X139446000Y-68728167D01*
X138006668Y-67077167D02*
X138006668Y-66188167D01*
X138430001Y-67077167D02*
X138430001Y-66188167D01*
X138938001Y-67077167D01*
X138938001Y-66188167D01*
X139234334Y-66188167D02*
X139742334Y-66188167D01*
X139488334Y-67077167D02*
X139488334Y-66188167D01*
X137795001Y-66034920D02*
X139827000Y-66034920D01*
X137752667Y-64537167D02*
X137752667Y-63648167D01*
X138091333Y-63648167D01*
X138176000Y-63690500D01*
X138218333Y-63732833D01*
X138260667Y-63817500D01*
X138260667Y-63944500D01*
X138218333Y-64029167D01*
X138176000Y-64071500D01*
X138091333Y-64113833D01*
X137752667Y-64113833D01*
X138811000Y-63648167D02*
X138980333Y-63648167D01*
X139065000Y-63690500D01*
X139149667Y-63775167D01*
X139192000Y-63944500D01*
X139192000Y-64240833D01*
X139149667Y-64410167D01*
X139065000Y-64494833D01*
X138980333Y-64537167D01*
X138811000Y-64537167D01*
X138726333Y-64494833D01*
X138641667Y-64410167D01*
X138599333Y-64240833D01*
X138599333Y-63944500D01*
X138641667Y-63775167D01*
X138726333Y-63690500D01*
X138811000Y-63648167D01*
X139996333Y-64537167D02*
X139573000Y-64537167D01*
X139573000Y-63648167D01*
D14*
X146970000Y-65440000D02*
X147670000Y-65440000D01*
X147670000Y-66640000D02*
X146970000Y-66640000D01*
X146970000Y-59090000D02*
X147670000Y-59090000D01*
X147670000Y-60290000D02*
X146970000Y-60290000D01*
D15*
X149436000Y-67880000D02*
X149336000Y-67780000D01*
X149336000Y-67780000D02*
X147336000Y-67780000D01*
X147336000Y-67780000D02*
X147236000Y-67880000D01*
X149336000Y-69380000D02*
X149436000Y-69280000D01*
X148236000Y-69380000D02*
X147336000Y-69380000D01*
X147336000Y-69380000D02*
X147236000Y-69280000D01*
X149336000Y-69380000D02*
X148236000Y-69380000D01*
D16*
X164480240Y-66865500D02*
X156979620Y-66865500D01*
X156979620Y-58864500D02*
X164480240Y-58864500D01*
X156979620Y-58864500D02*
X156979620Y-59265820D01*
X158480760Y-59065160D02*
X156979620Y-59065160D01*
X156979620Y-59265820D02*
X158480760Y-59265820D01*
X156979620Y-66664840D02*
X158480760Y-66664840D01*
X158480760Y-66464180D02*
X156979620Y-66464180D01*
X156979620Y-66464180D02*
X156979620Y-66865500D01*
X164480240Y-63365380D02*
X163479480Y-63365380D01*
X163479480Y-63365380D02*
X163479480Y-62364620D01*
X163479480Y-62364620D02*
X164480240Y-62364620D01*
X158480760Y-64863980D02*
X162979100Y-64863980D01*
X162979100Y-64863980D02*
X162979100Y-65565020D01*
X162979100Y-65565020D02*
X158480760Y-65565020D01*
X158480760Y-60866020D02*
X162979100Y-60866020D01*
X162979100Y-60866020D02*
X162979100Y-60164980D01*
X162979100Y-60164980D02*
X158480760Y-60164980D01*
X164480240Y-66865500D02*
X164480240Y-58864500D01*
X158480760Y-58864500D02*
X158480760Y-66865500D01*
X164480240Y-64165480D02*
X164480240Y-64465200D01*
D11*
X153035000Y-58420000D02*
X151765000Y-58420000D01*
X151765000Y-58420000D02*
X151130000Y-57785000D01*
X151130000Y-57785000D02*
X151130000Y-56515000D01*
X151130000Y-56515000D02*
X151765000Y-55880000D01*
X151765000Y-55880000D02*
X153035000Y-55880000D01*
X153035000Y-55880000D02*
X153670000Y-56515000D01*
X153670000Y-56515000D02*
X154305000Y-55880000D01*
X154305000Y-55880000D02*
X155575000Y-55880000D01*
X155575000Y-55880000D02*
X156210000Y-56515000D01*
X156210000Y-56515000D02*
X156210000Y-57785000D01*
X156210000Y-57785000D02*
X155575000Y-58420000D01*
X155575000Y-58420000D02*
X154305000Y-58420000D01*
X154305000Y-58420000D02*
X153670000Y-57785000D01*
X153670000Y-57785000D02*
X153035000Y-58420000D01*
X153035000Y-69850000D02*
X151765000Y-69850000D01*
X151765000Y-69850000D02*
X151130000Y-69215000D01*
X151130000Y-69215000D02*
X151130000Y-67945000D01*
X151130000Y-67945000D02*
X151765000Y-67310000D01*
X151765000Y-67310000D02*
X153035000Y-67310000D01*
X153035000Y-67310000D02*
X153670000Y-67945000D01*
X153670000Y-67945000D02*
X154305000Y-67310000D01*
X154305000Y-67310000D02*
X155575000Y-67310000D01*
X155575000Y-67310000D02*
X156210000Y-67945000D01*
X156210000Y-67945000D02*
X156210000Y-69215000D01*
X156210000Y-69215000D02*
X155575000Y-69850000D01*
X155575000Y-69850000D02*
X154305000Y-69850000D01*
X154305000Y-69850000D02*
X153670000Y-69215000D01*
X153670000Y-69215000D02*
X153035000Y-69850000D01*
X140295000Y-65270000D02*
X140295000Y-64270000D01*
X141645000Y-64270000D02*
X141645000Y-65270000D01*
X143296000Y-64270000D02*
X143296000Y-65270000D01*
X141946000Y-65270000D02*
X141946000Y-64270000D01*
X141486000Y-67397000D02*
X142486000Y-67397000D01*
X142486000Y-68747000D02*
X141486000Y-68747000D01*
X140978000Y-59269000D02*
X141978000Y-59269000D01*
X141978000Y-60619000D02*
X140978000Y-60619000D01*
X140978000Y-57237000D02*
X141978000Y-57237000D01*
X141978000Y-58587000D02*
X140978000Y-58587000D01*
X140978000Y-61301000D02*
X141978000Y-61301000D01*
X141978000Y-62651000D02*
X140978000Y-62651000D01*
X148074000Y-57063000D02*
X147074000Y-57063000D01*
X147074000Y-55713000D02*
X148074000Y-55713000D01*
X148995000Y-64540000D02*
X148995000Y-64315000D01*
X145645000Y-64540000D02*
X145645000Y-64240000D01*
X145645000Y-61190000D02*
X145645000Y-61490000D01*
X148995000Y-61190000D02*
X148995000Y-61490000D01*
X148995000Y-64540000D02*
X145645000Y-64540000D01*
X148995000Y-61190000D02*
X145645000Y-61190000D01*
X148995000Y-64315000D02*
X150220000Y-64315000D01*
X154237000Y-61738000D02*
X154237000Y-63738000D01*
X152087000Y-63738000D02*
X152087000Y-61738000D01*
D17*
X145457333Y-66221429D02*
X145433143Y-66245619D01*
X145360571Y-66269810D01*
X145312190Y-66269810D01*
X145239619Y-66245619D01*
X145191238Y-66197238D01*
X145167047Y-66148857D01*
X145142857Y-66052095D01*
X145142857Y-65979524D01*
X145167047Y-65882762D01*
X145191238Y-65834381D01*
X145239619Y-65786000D01*
X145312190Y-65761810D01*
X145360571Y-65761810D01*
X145433143Y-65786000D01*
X145457333Y-65810190D01*
X145941143Y-66269810D02*
X145650857Y-66269810D01*
X145796000Y-66269810D02*
X145796000Y-65761810D01*
X145747619Y-65834381D01*
X145699238Y-65882762D01*
X145650857Y-65906952D01*
X149267333Y-59871429D02*
X149243143Y-59895619D01*
X149170571Y-59919810D01*
X149122190Y-59919810D01*
X149049619Y-59895619D01*
X149001238Y-59847238D01*
X148977047Y-59798857D01*
X148952857Y-59702095D01*
X148952857Y-59629524D01*
X148977047Y-59532762D01*
X149001238Y-59484381D01*
X149049619Y-59436000D01*
X149122190Y-59411810D01*
X149170571Y-59411810D01*
X149243143Y-59436000D01*
X149267333Y-59460190D01*
X149460857Y-59460190D02*
X149485047Y-59436000D01*
X149533428Y-59411810D01*
X149654381Y-59411810D01*
X149702762Y-59436000D01*
X149726952Y-59460190D01*
X149751143Y-59508571D01*
X149751143Y-59556952D01*
X149726952Y-59629524D01*
X149436666Y-59919810D01*
X149751143Y-59919810D01*
D11*
X145647833Y-68232262D02*
X145647833Y-68685833D01*
X145617595Y-68776548D01*
X145557119Y-68837024D01*
X145466404Y-68867262D01*
X145405928Y-68867262D01*
X145950214Y-68867262D02*
X145950214Y-68232262D01*
X146192119Y-68232262D01*
X146252595Y-68262500D01*
X146282834Y-68292738D01*
X146313072Y-68353214D01*
X146313072Y-68443929D01*
X146282834Y-68504405D01*
X146252595Y-68534643D01*
X146192119Y-68564881D01*
X145950214Y-68564881D01*
X146554976Y-68292738D02*
X146585214Y-68262500D01*
X146645691Y-68232262D01*
X146796881Y-68232262D01*
X146857357Y-68262500D01*
X146887595Y-68292738D01*
X146917834Y-68353214D01*
X146917834Y-68413690D01*
X146887595Y-68504405D01*
X146524738Y-68867262D01*
X146917834Y-68867262D01*
D17*
X140885333Y-66777810D02*
X140716000Y-66535905D01*
X140595047Y-66777810D02*
X140595047Y-66269810D01*
X140788571Y-66269810D01*
X140836952Y-66294000D01*
X140861143Y-66318190D01*
X140885333Y-66366571D01*
X140885333Y-66439143D01*
X140861143Y-66487524D01*
X140836952Y-66511714D01*
X140788571Y-66535905D01*
X140595047Y-66535905D01*
X141054666Y-66269810D02*
X141369143Y-66269810D01*
X141199809Y-66463333D01*
X141272381Y-66463333D01*
X141320762Y-66487524D01*
X141344952Y-66511714D01*
X141369143Y-66560095D01*
X141369143Y-66681048D01*
X141344952Y-66729429D01*
X141320762Y-66753619D01*
X141272381Y-66777810D01*
X141127238Y-66777810D01*
X141078857Y-66753619D01*
X141054666Y-66729429D01*
X142536333Y-66777810D02*
X142367000Y-66535905D01*
X142246047Y-66777810D02*
X142246047Y-66269810D01*
X142439571Y-66269810D01*
X142487952Y-66294000D01*
X142512143Y-66318190D01*
X142536333Y-66366571D01*
X142536333Y-66439143D01*
X142512143Y-66487524D01*
X142487952Y-66511714D01*
X142439571Y-66535905D01*
X142246047Y-66535905D01*
X142971762Y-66439143D02*
X142971762Y-66777810D01*
X142850809Y-66245619D02*
X142729857Y-66608476D01*
X143044333Y-66608476D01*
X139869333Y-68301810D02*
X139700000Y-68059905D01*
X139579047Y-68301810D02*
X139579047Y-67793810D01*
X139772571Y-67793810D01*
X139820952Y-67818000D01*
X139845143Y-67842190D01*
X139869333Y-67890571D01*
X139869333Y-67963143D01*
X139845143Y-68011524D01*
X139820952Y-68035714D01*
X139772571Y-68059905D01*
X139579047Y-68059905D01*
X140328952Y-67793810D02*
X140087047Y-67793810D01*
X140062857Y-68035714D01*
X140087047Y-68011524D01*
X140135428Y-67987333D01*
X140256381Y-67987333D01*
X140304762Y-68011524D01*
X140328952Y-68035714D01*
X140353143Y-68084095D01*
X140353143Y-68205048D01*
X140328952Y-68253429D01*
X140304762Y-68277619D01*
X140256381Y-68301810D01*
X140135428Y-68301810D01*
X140087047Y-68277619D01*
X140062857Y-68253429D01*
X143171333Y-60173810D02*
X143002000Y-59931905D01*
X142881047Y-60173810D02*
X142881047Y-59665810D01*
X143074571Y-59665810D01*
X143122952Y-59690000D01*
X143147143Y-59714190D01*
X143171333Y-59762571D01*
X143171333Y-59835143D01*
X143147143Y-59883524D01*
X143122952Y-59907714D01*
X143074571Y-59931905D01*
X142881047Y-59931905D01*
X143606762Y-59665810D02*
X143510000Y-59665810D01*
X143461619Y-59690000D01*
X143437428Y-59714190D01*
X143389047Y-59786762D01*
X143364857Y-59883524D01*
X143364857Y-60077048D01*
X143389047Y-60125429D01*
X143413238Y-60149619D01*
X143461619Y-60173810D01*
X143558381Y-60173810D01*
X143606762Y-60149619D01*
X143630952Y-60125429D01*
X143655143Y-60077048D01*
X143655143Y-59956095D01*
X143630952Y-59907714D01*
X143606762Y-59883524D01*
X143558381Y-59859333D01*
X143461619Y-59859333D01*
X143413238Y-59883524D01*
X143389047Y-59907714D01*
X143364857Y-59956095D01*
X143171333Y-58141810D02*
X143002000Y-57899905D01*
X142881047Y-58141810D02*
X142881047Y-57633810D01*
X143074571Y-57633810D01*
X143122952Y-57658000D01*
X143147143Y-57682190D01*
X143171333Y-57730571D01*
X143171333Y-57803143D01*
X143147143Y-57851524D01*
X143122952Y-57875714D01*
X143074571Y-57899905D01*
X142881047Y-57899905D01*
X143340666Y-57633810D02*
X143679333Y-57633810D01*
X143461619Y-58141810D01*
X143171333Y-62205810D02*
X143002000Y-61963905D01*
X142881047Y-62205810D02*
X142881047Y-61697810D01*
X143074571Y-61697810D01*
X143122952Y-61722000D01*
X143147143Y-61746190D01*
X143171333Y-61794571D01*
X143171333Y-61867143D01*
X143147143Y-61915524D01*
X143122952Y-61939714D01*
X143074571Y-61963905D01*
X142881047Y-61963905D01*
X143461619Y-61915524D02*
X143413238Y-61891333D01*
X143389047Y-61867143D01*
X143364857Y-61818762D01*
X143364857Y-61794571D01*
X143389047Y-61746190D01*
X143413238Y-61722000D01*
X143461619Y-61697810D01*
X143558381Y-61697810D01*
X143606762Y-61722000D01*
X143630952Y-61746190D01*
X143655143Y-61794571D01*
X143655143Y-61818762D01*
X143630952Y-61867143D01*
X143606762Y-61891333D01*
X143558381Y-61915524D01*
X143461619Y-61915524D01*
X143413238Y-61939714D01*
X143389047Y-61963905D01*
X143364857Y-62012286D01*
X143364857Y-62109048D01*
X143389047Y-62157429D01*
X143413238Y-62181619D01*
X143461619Y-62205810D01*
X143558381Y-62205810D01*
X143606762Y-62181619D01*
X143630952Y-62157429D01*
X143655143Y-62109048D01*
X143655143Y-62012286D01*
X143630952Y-61963905D01*
X143606762Y-61939714D01*
X143558381Y-61915524D01*
X145457333Y-56617810D02*
X145288000Y-56375905D01*
X145167047Y-56617810D02*
X145167047Y-56109810D01*
X145360571Y-56109810D01*
X145408952Y-56134000D01*
X145433143Y-56158190D01*
X145457333Y-56206571D01*
X145457333Y-56279143D01*
X145433143Y-56327524D01*
X145408952Y-56351714D01*
X145360571Y-56375905D01*
X145167047Y-56375905D01*
X145699238Y-56617810D02*
X145796000Y-56617810D01*
X145844381Y-56593619D01*
X145868571Y-56569429D01*
X145916952Y-56496857D01*
X145941143Y-56400095D01*
X145941143Y-56206571D01*
X145916952Y-56158190D01*
X145892762Y-56134000D01*
X145844381Y-56109810D01*
X145747619Y-56109810D01*
X145699238Y-56134000D01*
X145675047Y-56158190D01*
X145650857Y-56206571D01*
X145650857Y-56327524D01*
X145675047Y-56375905D01*
X145699238Y-56400095D01*
X145747619Y-56424286D01*
X145844381Y-56424286D01*
X145892762Y-56400095D01*
X145916952Y-56375905D01*
X145941143Y-56327524D01*
X144646952Y-64364810D02*
X144646952Y-64776048D01*
X144671143Y-64824429D01*
X144695333Y-64848619D01*
X144743714Y-64872810D01*
X144840476Y-64872810D01*
X144888857Y-64848619D01*
X144913048Y-64824429D01*
X144937238Y-64776048D01*
X144937238Y-64364810D01*
X145445238Y-64872810D02*
X145154952Y-64872810D01*
X145300095Y-64872810D02*
X145300095Y-64364810D01*
X145251714Y-64437381D01*
X145203333Y-64485762D01*
X145154952Y-64509952D01*
D11*
X151149262Y-62843833D02*
X150846881Y-63055500D01*
X151149262Y-63206691D02*
X150514262Y-63206691D01*
X150514262Y-62964786D01*
X150544500Y-62904310D01*
X150574738Y-62874071D01*
X150635214Y-62843833D01*
X150725929Y-62843833D01*
X150786405Y-62874071D01*
X150816643Y-62904310D01*
X150846881Y-62964786D01*
X150846881Y-63206691D01*
X151149262Y-62239071D02*
X151149262Y-62601929D01*
X151149262Y-62420500D02*
X150514262Y-62420500D01*
X150604976Y-62480976D01*
X150665452Y-62541452D01*
X150695690Y-62601929D01*
M02*
