G04 #@! TF.FileFunction,Copper,L2,Bot,Signal*
%FSLAX46Y46*%
G04 Gerber Fmt 4.6, Leading zero omitted, Abs format (unit mm)*
G04 Created by KiCad (PCBNEW 4.0.4-stable) date 02/22/17 18:27:42*
%MOMM*%
%LPD*%
G01*
G04 APERTURE LIST*
%ADD10C,0.100000*%
%ADD11C,0.150000*%
%ADD12C,2.500000*%
%ADD13R,0.762000X1.524000*%
%ADD14C,2.032000*%
%ADD15O,2.032000X2.032000*%
%ADD16O,2.032000X1.727200*%
%ADD17C,0.700000*%
%ADD18C,1.000000*%
%ADD19C,0.304800*%
%ADD20C,0.635000*%
%ADD21C,0.381000*%
%ADD22C,0.254000*%
G04 APERTURE END LIST*
D10*
D11*
X163830000Y-70485000D02*
X135255000Y-70485000D01*
X165100000Y-69215000D02*
X165100000Y-56515000D01*
X163830000Y-55245000D02*
X137160000Y-55245000D01*
X165100000Y-56515000D02*
G75*
G03X163830000Y-55245000I-1270000J0D01*
G01*
X163830000Y-70485000D02*
G75*
G03X165100000Y-69215000I0J1270000D01*
G01*
X137160000Y-55245000D02*
X135255000Y-55245000D01*
X135255000Y-55245000D02*
X135255000Y-70485000D01*
D12*
X163322000Y-56896000D03*
X163322000Y-68834000D03*
D13*
X146720000Y-68580000D03*
X147920000Y-68580000D03*
X147920000Y-57150000D03*
X146720000Y-57150000D03*
D14*
X152400000Y-57150000D03*
D15*
X154940000Y-57150000D03*
D14*
X152400000Y-68580000D03*
D15*
X154940000Y-68580000D03*
D16*
X136525000Y-69215000D03*
X136525000Y-66675000D03*
X136525000Y-64135000D03*
X136525000Y-61595000D03*
X136525000Y-59055000D03*
X136525000Y-56515000D03*
D17*
X143192500Y-62865000D03*
D18*
X155067000Y-63817500D03*
X150431500Y-66040000D03*
D17*
X139446000Y-64897000D03*
X149860000Y-67183000D03*
X143129000Y-66802000D03*
X149733000Y-58674000D03*
X144780000Y-57086500D03*
X151257000Y-65024000D03*
X151257000Y-66929000D03*
X150114000Y-56388000D03*
X139573000Y-62230000D03*
X138938000Y-61468000D03*
D19*
X150431500Y-66040000D02*
X150431500Y-65849500D01*
D20*
X145351500Y-65024000D02*
X143192500Y-62865000D01*
X149606000Y-65024000D02*
X145351500Y-65024000D01*
X150431500Y-65849500D02*
X149606000Y-65024000D01*
X152400000Y-61150500D02*
X152400000Y-57150000D01*
X155067000Y-63817500D02*
X152400000Y-61150500D01*
X154940000Y-68580000D02*
X154940000Y-66865500D01*
X154114500Y-66040000D02*
X150431500Y-66040000D01*
X154940000Y-66865500D02*
X154114500Y-66040000D01*
D21*
X139446000Y-64897000D02*
X138811000Y-65532000D01*
X138811000Y-66929000D02*
X139319000Y-67437000D01*
X138811000Y-65532000D02*
X138811000Y-66929000D01*
D19*
X139065000Y-65278000D02*
X139446000Y-64897000D01*
D21*
X142367000Y-68580000D02*
X140462000Y-68580000D01*
X140462000Y-68580000D02*
X139319000Y-67437000D01*
X146720000Y-68580000D02*
X143383000Y-68580000D01*
X142367000Y-68580000D02*
X143383000Y-68580000D01*
D19*
X139319000Y-67437000D02*
X139065000Y-67183000D01*
D21*
X149860000Y-67183000D02*
X149542500Y-66865500D01*
X149542500Y-66865500D02*
X147193000Y-66865500D01*
X138176000Y-59055000D02*
X139065000Y-59055000D01*
X139065000Y-59055000D02*
X140970000Y-60960000D01*
X140970000Y-60960000D02*
X140970000Y-62801500D01*
X138176000Y-59055000D02*
X136525000Y-59055000D01*
D19*
X137160000Y-59055000D02*
X138176000Y-59055000D01*
D21*
X143129000Y-66802000D02*
X143510000Y-66421000D01*
X143510000Y-66421000D02*
X143510000Y-65341500D01*
X147920000Y-67592500D02*
X147920000Y-68580000D01*
X147193000Y-66865500D02*
X147920000Y-67592500D01*
X145034000Y-66865500D02*
X147193000Y-66865500D01*
X140970000Y-62801500D02*
X143510000Y-65341500D01*
X143510000Y-65341500D02*
X145034000Y-66865500D01*
D19*
X147920000Y-68227500D02*
X147920000Y-68580000D01*
D21*
X149733000Y-58674000D02*
X148209000Y-57150000D01*
X148209000Y-57150000D02*
X147920000Y-57150000D01*
D19*
X144843500Y-57150000D02*
X146720000Y-57150000D01*
X144780000Y-57086500D02*
X144843500Y-57150000D01*
D21*
X139573000Y-69215000D02*
X140335000Y-69977000D01*
X140335000Y-69977000D02*
X149606000Y-69977000D01*
X149606000Y-69977000D02*
X150495000Y-69088000D01*
X150495000Y-69088000D02*
X150495000Y-67691000D01*
X150495000Y-67691000D02*
X151257000Y-66929000D01*
X136525000Y-69215000D02*
X139573000Y-69215000D01*
X150622000Y-56896000D02*
X150114000Y-56388000D01*
X150622000Y-58420000D02*
X150622000Y-56896000D01*
X151130000Y-58928000D02*
X150622000Y-58420000D01*
X151130000Y-64897000D02*
X151130000Y-58928000D01*
D19*
X151257000Y-65024000D02*
X151130000Y-64897000D01*
D21*
X139573000Y-63119000D02*
X139573000Y-63690500D01*
X139573000Y-62230000D02*
X139573000Y-63119000D01*
D19*
X138176000Y-69024500D02*
X137985500Y-69215000D01*
D21*
X138176000Y-65087500D02*
X138176000Y-69024500D01*
X139573000Y-63690500D02*
X138176000Y-65087500D01*
D19*
X137985500Y-69215000D02*
X137160000Y-69215000D01*
D21*
X137922000Y-64135000D02*
X136525000Y-64135000D01*
X138842750Y-61563250D02*
X138842750Y-63404750D01*
D19*
X138938000Y-61468000D02*
X138842750Y-61563250D01*
D21*
X138842750Y-63404750D02*
X138112500Y-64135000D01*
X138112500Y-64135000D02*
X137922000Y-64135000D01*
D19*
X137922000Y-64135000D02*
X137160000Y-64135000D01*
D22*
G36*
X151415498Y-55985893D02*
X152400000Y-56970395D01*
X153384502Y-55985893D01*
X153372925Y-55955000D01*
X153769374Y-55955000D01*
X153615785Y-56184863D01*
X153564107Y-56165498D01*
X152579605Y-57150000D01*
X153564107Y-58134502D01*
X153615785Y-58115137D01*
X153772567Y-58349778D01*
X154308190Y-58707670D01*
X154940000Y-58833345D01*
X155571810Y-58707670D01*
X156107433Y-58349778D01*
X156465325Y-57814155D01*
X156591000Y-57182345D01*
X156591000Y-57117655D01*
X156465325Y-56485845D01*
X156110626Y-55955000D01*
X161671690Y-55955000D01*
X161437328Y-56519405D01*
X161436674Y-57269305D01*
X161723043Y-57962372D01*
X162252839Y-58493093D01*
X162945405Y-58780672D01*
X163695305Y-58781326D01*
X164388372Y-58494957D01*
X164390000Y-58493332D01*
X164390000Y-67236425D01*
X163698595Y-66949328D01*
X162948695Y-66948674D01*
X162255628Y-67235043D01*
X161724907Y-67764839D01*
X161437328Y-68457405D01*
X161436674Y-69207305D01*
X161671240Y-69775000D01*
X156032787Y-69775000D01*
X156277188Y-69548379D01*
X156545983Y-68962946D01*
X156427367Y-68707000D01*
X155067000Y-68707000D01*
X155067000Y-68727000D01*
X154813000Y-68727000D01*
X154813000Y-68707000D01*
X154793000Y-68707000D01*
X154793000Y-68453000D01*
X154813000Y-68453000D01*
X154813000Y-67093164D01*
X155067000Y-67093164D01*
X155067000Y-68453000D01*
X156427367Y-68453000D01*
X156545983Y-68197054D01*
X156277188Y-67611621D01*
X155804818Y-67173615D01*
X155322944Y-66974025D01*
X155067000Y-67093164D01*
X154813000Y-67093164D01*
X154557056Y-66974025D01*
X154075182Y-67173615D01*
X153687631Y-67532973D01*
X153336437Y-67181166D01*
X152729845Y-66929287D01*
X152242000Y-66928861D01*
X152242170Y-66733931D01*
X152092529Y-66371771D01*
X151815686Y-66094445D01*
X151531390Y-65976395D01*
X151814229Y-65859529D01*
X152091555Y-65582686D01*
X152241828Y-65220788D01*
X152242170Y-64828931D01*
X152092529Y-64466771D01*
X151955500Y-64329503D01*
X151955500Y-58928000D01*
X151916451Y-58731688D01*
X152131642Y-58811816D01*
X152788019Y-58788014D01*
X153283880Y-58582622D01*
X153384502Y-58314107D01*
X152400000Y-57329605D01*
X152385858Y-57343748D01*
X152206253Y-57164143D01*
X152220395Y-57150000D01*
X151235893Y-56165498D01*
X151107169Y-56213736D01*
X151099159Y-56205726D01*
X151099170Y-56192931D01*
X151000859Y-55955000D01*
X151427075Y-55955000D01*
X151415498Y-55985893D01*
X151415498Y-55985893D01*
G37*
X151415498Y-55985893D02*
X152400000Y-56970395D01*
X153384502Y-55985893D01*
X153372925Y-55955000D01*
X153769374Y-55955000D01*
X153615785Y-56184863D01*
X153564107Y-56165498D01*
X152579605Y-57150000D01*
X153564107Y-58134502D01*
X153615785Y-58115137D01*
X153772567Y-58349778D01*
X154308190Y-58707670D01*
X154940000Y-58833345D01*
X155571810Y-58707670D01*
X156107433Y-58349778D01*
X156465325Y-57814155D01*
X156591000Y-57182345D01*
X156591000Y-57117655D01*
X156465325Y-56485845D01*
X156110626Y-55955000D01*
X161671690Y-55955000D01*
X161437328Y-56519405D01*
X161436674Y-57269305D01*
X161723043Y-57962372D01*
X162252839Y-58493093D01*
X162945405Y-58780672D01*
X163695305Y-58781326D01*
X164388372Y-58494957D01*
X164390000Y-58493332D01*
X164390000Y-67236425D01*
X163698595Y-66949328D01*
X162948695Y-66948674D01*
X162255628Y-67235043D01*
X161724907Y-67764839D01*
X161437328Y-68457405D01*
X161436674Y-69207305D01*
X161671240Y-69775000D01*
X156032787Y-69775000D01*
X156277188Y-69548379D01*
X156545983Y-68962946D01*
X156427367Y-68707000D01*
X155067000Y-68707000D01*
X155067000Y-68727000D01*
X154813000Y-68727000D01*
X154813000Y-68707000D01*
X154793000Y-68707000D01*
X154793000Y-68453000D01*
X154813000Y-68453000D01*
X154813000Y-67093164D01*
X155067000Y-67093164D01*
X155067000Y-68453000D01*
X156427367Y-68453000D01*
X156545983Y-68197054D01*
X156277188Y-67611621D01*
X155804818Y-67173615D01*
X155322944Y-66974025D01*
X155067000Y-67093164D01*
X154813000Y-67093164D01*
X154557056Y-66974025D01*
X154075182Y-67173615D01*
X153687631Y-67532973D01*
X153336437Y-67181166D01*
X152729845Y-66929287D01*
X152242000Y-66928861D01*
X152242170Y-66733931D01*
X152092529Y-66371771D01*
X151815686Y-66094445D01*
X151531390Y-65976395D01*
X151814229Y-65859529D01*
X152091555Y-65582686D01*
X152241828Y-65220788D01*
X152242170Y-64828931D01*
X152092529Y-64466771D01*
X151955500Y-64329503D01*
X151955500Y-58928000D01*
X151916451Y-58731688D01*
X152131642Y-58811816D01*
X152788019Y-58788014D01*
X153283880Y-58582622D01*
X153384502Y-58314107D01*
X152400000Y-57329605D01*
X152385858Y-57343748D01*
X152206253Y-57164143D01*
X152220395Y-57150000D01*
X151235893Y-56165498D01*
X151107169Y-56213736D01*
X151099159Y-56205726D01*
X151099170Y-56192931D01*
X151000859Y-55955000D01*
X151427075Y-55955000D01*
X151415498Y-55985893D01*
G36*
X145742569Y-56136110D02*
X145696704Y-56362600D01*
X145449148Y-56362600D01*
X145338686Y-56251945D01*
X144976788Y-56101672D01*
X144584931Y-56101330D01*
X144222771Y-56250971D01*
X143945445Y-56527814D01*
X143795172Y-56889712D01*
X143794830Y-57281569D01*
X143944471Y-57643729D01*
X144221314Y-57921055D01*
X144583212Y-58071328D01*
X144975069Y-58071670D01*
X145300028Y-57937400D01*
X145696339Y-57937400D01*
X145735838Y-58147317D01*
X145874910Y-58363441D01*
X146087110Y-58508431D01*
X146339000Y-58559440D01*
X147101000Y-58559440D01*
X147328040Y-58516719D01*
X147539000Y-58559440D01*
X148301000Y-58559440D01*
X148427251Y-58535684D01*
X148747841Y-58856274D01*
X148747830Y-58869069D01*
X148897471Y-59231229D01*
X149174314Y-59508555D01*
X149536212Y-59658828D01*
X149928069Y-59659170D01*
X150290229Y-59509529D01*
X150304500Y-59495283D01*
X150304500Y-64749357D01*
X150272172Y-64827212D01*
X150271830Y-65219069D01*
X150421471Y-65581229D01*
X150698314Y-65858555D01*
X150982610Y-65976605D01*
X150699771Y-66093471D01*
X150431497Y-66361278D01*
X150418686Y-66348445D01*
X150056788Y-66198172D01*
X150001012Y-66198123D01*
X149858406Y-66102837D01*
X149542500Y-66040000D01*
X145375933Y-66040000D01*
X144093717Y-64757783D01*
X144093714Y-64757781D01*
X141795500Y-62459566D01*
X141795500Y-60960005D01*
X141795501Y-60960000D01*
X141732663Y-60644095D01*
X141553717Y-60376283D01*
X139648717Y-58471283D01*
X139380906Y-58292337D01*
X139065000Y-58229500D01*
X137925883Y-58229500D01*
X137769415Y-57995330D01*
X137454634Y-57785000D01*
X137769415Y-57574670D01*
X138094271Y-57088489D01*
X138208345Y-56515000D01*
X138096954Y-55955000D01*
X145866316Y-55955000D01*
X145742569Y-56136110D01*
X145742569Y-56136110D01*
G37*
X145742569Y-56136110D02*
X145696704Y-56362600D01*
X145449148Y-56362600D01*
X145338686Y-56251945D01*
X144976788Y-56101672D01*
X144584931Y-56101330D01*
X144222771Y-56250971D01*
X143945445Y-56527814D01*
X143795172Y-56889712D01*
X143794830Y-57281569D01*
X143944471Y-57643729D01*
X144221314Y-57921055D01*
X144583212Y-58071328D01*
X144975069Y-58071670D01*
X145300028Y-57937400D01*
X145696339Y-57937400D01*
X145735838Y-58147317D01*
X145874910Y-58363441D01*
X146087110Y-58508431D01*
X146339000Y-58559440D01*
X147101000Y-58559440D01*
X147328040Y-58516719D01*
X147539000Y-58559440D01*
X148301000Y-58559440D01*
X148427251Y-58535684D01*
X148747841Y-58856274D01*
X148747830Y-58869069D01*
X148897471Y-59231229D01*
X149174314Y-59508555D01*
X149536212Y-59658828D01*
X149928069Y-59659170D01*
X150290229Y-59509529D01*
X150304500Y-59495283D01*
X150304500Y-64749357D01*
X150272172Y-64827212D01*
X150271830Y-65219069D01*
X150421471Y-65581229D01*
X150698314Y-65858555D01*
X150982610Y-65976605D01*
X150699771Y-66093471D01*
X150431497Y-66361278D01*
X150418686Y-66348445D01*
X150056788Y-66198172D01*
X150001012Y-66198123D01*
X149858406Y-66102837D01*
X149542500Y-66040000D01*
X145375933Y-66040000D01*
X144093717Y-64757783D01*
X144093714Y-64757781D01*
X141795500Y-62459566D01*
X141795500Y-60960005D01*
X141795501Y-60960000D01*
X141732663Y-60644095D01*
X141553717Y-60376283D01*
X139648717Y-58471283D01*
X139380906Y-58292337D01*
X139065000Y-58229500D01*
X137925883Y-58229500D01*
X137769415Y-57995330D01*
X137454634Y-57785000D01*
X137769415Y-57574670D01*
X138094271Y-57088489D01*
X138208345Y-56515000D01*
X138096954Y-55955000D01*
X145866316Y-55955000D01*
X145742569Y-56136110D01*
G36*
X136652000Y-61468000D02*
X136672000Y-61468000D01*
X136672000Y-61722000D01*
X136652000Y-61722000D01*
X136652000Y-61742000D01*
X136398000Y-61742000D01*
X136398000Y-61722000D01*
X136378000Y-61722000D01*
X136378000Y-61468000D01*
X136398000Y-61468000D01*
X136398000Y-61448000D01*
X136652000Y-61448000D01*
X136652000Y-61468000D01*
X136652000Y-61468000D01*
G37*
X136652000Y-61468000D02*
X136672000Y-61468000D01*
X136672000Y-61722000D01*
X136652000Y-61722000D01*
X136652000Y-61742000D01*
X136398000Y-61742000D01*
X136398000Y-61722000D01*
X136378000Y-61722000D01*
X136378000Y-61468000D01*
X136398000Y-61468000D01*
X136398000Y-61448000D01*
X136652000Y-61448000D01*
X136652000Y-61468000D01*
M02*
