M48
;DRILL file {KiCad 4.0.4-stable} date 02/22/17 18:27:45
;FORMAT={-:-/ absolute / metric / decimal}
FMAT,2
METRIC,TZ
T1C0.500
T2C0.600
T3C1.016
%
G90
G05
M71
T1
X138.938Y-61.468
X139.446Y-64.897
X139.573Y-62.23
X143.129Y-66.802
X143.192Y-62.865
X144.78Y-57.087
X149.733Y-58.674
X149.86Y-67.183
X150.114Y-56.388
X151.257Y-65.024
X151.257Y-66.929
T2
X150.431Y-66.04
X155.067Y-63.817
T3
X136.525Y-56.515
X136.525Y-59.055
X136.525Y-61.595
X136.525Y-64.135
X136.525Y-66.675
X136.525Y-69.215
X152.4Y-57.15
X152.4Y-68.58
X154.94Y-57.15
X154.94Y-68.58
T0
M30
