G04 #@! TF.FileFunction,Legend,Bot*
%FSLAX46Y46*%
G04 Gerber Fmt 4.6, Leading zero omitted, Abs format (unit mm)*
G04 Created by KiCad (PCBNEW 4.0.4-stable) date 02/22/17 18:27:42*
%MOMM*%
%LPD*%
G01*
G04 APERTURE LIST*
%ADD10C,0.100000*%
%ADD11C,0.150000*%
%ADD12C,0.254000*%
%ADD13C,0.050000*%
%ADD14C,0.002540*%
G04 APERTURE END LIST*
D10*
D11*
X163830000Y-70485000D02*
X135255000Y-70485000D01*
X165100000Y-69215000D02*
X165100000Y-56515000D01*
X163830000Y-55245000D02*
X137160000Y-55245000D01*
X165100000Y-56515000D02*
G75*
G03X163830000Y-55245000I-1270000J0D01*
G01*
X163830000Y-70485000D02*
G75*
G03X165100000Y-69215000I0J1270000D01*
G01*
D12*
X154625523Y-65386857D02*
X154673904Y-65435238D01*
X154819047Y-65483619D01*
X154915809Y-65483619D01*
X155060951Y-65435238D01*
X155157713Y-65338476D01*
X155206094Y-65241714D01*
X155254475Y-65048190D01*
X155254475Y-64903048D01*
X155206094Y-64709524D01*
X155157713Y-64612762D01*
X155060951Y-64516000D01*
X154915809Y-64467619D01*
X154819047Y-64467619D01*
X154673904Y-64516000D01*
X154625523Y-64564381D01*
X154044951Y-65483619D02*
X154141713Y-65435238D01*
X154190094Y-65386857D01*
X154238475Y-65290095D01*
X154238475Y-64999810D01*
X154190094Y-64903048D01*
X154141713Y-64854667D01*
X154044951Y-64806286D01*
X153899809Y-64806286D01*
X153803047Y-64854667D01*
X153754666Y-64903048D01*
X153706285Y-64999810D01*
X153706285Y-65290095D01*
X153754666Y-65386857D01*
X153803047Y-65435238D01*
X153899809Y-65483619D01*
X154044951Y-65483619D01*
X152835428Y-64806286D02*
X152835428Y-65483619D01*
X153270856Y-64806286D02*
X153270856Y-65338476D01*
X153222475Y-65435238D01*
X153125713Y-65483619D01*
X152980571Y-65483619D01*
X152883809Y-65435238D01*
X152835428Y-65386857D01*
X152206475Y-65483619D02*
X152303237Y-65435238D01*
X152351618Y-65338476D01*
X152351618Y-64467619D01*
X151674285Y-65483619D02*
X151771047Y-65435238D01*
X151819428Y-65386857D01*
X151867809Y-65290095D01*
X151867809Y-64999810D01*
X151819428Y-64903048D01*
X151771047Y-64854667D01*
X151674285Y-64806286D01*
X151529143Y-64806286D01*
X151432381Y-64854667D01*
X151384000Y-64903048D01*
X151335619Y-64999810D01*
X151335619Y-65290095D01*
X151384000Y-65386857D01*
X151432381Y-65435238D01*
X151529143Y-65483619D01*
X151674285Y-65483619D01*
X150900190Y-65483619D02*
X150900190Y-64806286D01*
X150900190Y-64903048D02*
X150851809Y-64854667D01*
X150755047Y-64806286D01*
X150609905Y-64806286D01*
X150513143Y-64854667D01*
X150464762Y-64951429D01*
X150464762Y-65483619D01*
X150464762Y-64951429D02*
X150416381Y-64854667D01*
X150319619Y-64806286D01*
X150174476Y-64806286D01*
X150077714Y-64854667D01*
X150029333Y-64951429D01*
X150029333Y-65483619D01*
X149545523Y-65483619D02*
X149545523Y-64467619D01*
X149545523Y-64854667D02*
X149448761Y-64806286D01*
X149255238Y-64806286D01*
X149158476Y-64854667D01*
X149110095Y-64903048D01*
X149061714Y-64999810D01*
X149061714Y-65290095D01*
X149110095Y-65386857D01*
X149158476Y-65435238D01*
X149255238Y-65483619D01*
X149448761Y-65483619D01*
X149545523Y-65435238D01*
X147271619Y-65386857D02*
X147320000Y-65435238D01*
X147465143Y-65483619D01*
X147561905Y-65483619D01*
X147707047Y-65435238D01*
X147803809Y-65338476D01*
X147852190Y-65241714D01*
X147900571Y-65048190D01*
X147900571Y-64903048D01*
X147852190Y-64709524D01*
X147803809Y-64612762D01*
X147707047Y-64516000D01*
X147561905Y-64467619D01*
X147465143Y-64467619D01*
X147320000Y-64516000D01*
X147271619Y-64564381D01*
X146691047Y-65483619D02*
X146787809Y-65435238D01*
X146836190Y-65386857D01*
X146884571Y-65290095D01*
X146884571Y-64999810D01*
X146836190Y-64903048D01*
X146787809Y-64854667D01*
X146691047Y-64806286D01*
X146545905Y-64806286D01*
X146449143Y-64854667D01*
X146400762Y-64903048D01*
X146352381Y-64999810D01*
X146352381Y-65290095D01*
X146400762Y-65386857D01*
X146449143Y-65435238D01*
X146545905Y-65483619D01*
X146691047Y-65483619D01*
X145481524Y-64806286D02*
X145481524Y-65483619D01*
X145916952Y-64806286D02*
X145916952Y-65338476D01*
X145868571Y-65435238D01*
X145771809Y-65483619D01*
X145626667Y-65483619D01*
X145529905Y-65435238D01*
X145481524Y-65386857D01*
X144997714Y-64806286D02*
X144997714Y-65483619D01*
X144997714Y-64903048D02*
X144949333Y-64854667D01*
X144852571Y-64806286D01*
X144707429Y-64806286D01*
X144610667Y-64854667D01*
X144562286Y-64951429D01*
X144562286Y-65483619D01*
X144223619Y-64806286D02*
X143836571Y-64806286D01*
X144078476Y-64467619D02*
X144078476Y-65338476D01*
X144030095Y-65435238D01*
X143933333Y-65483619D01*
X143836571Y-65483619D01*
X143110858Y-65435238D02*
X143207620Y-65483619D01*
X143401143Y-65483619D01*
X143497905Y-65435238D01*
X143546286Y-65338476D01*
X143546286Y-64951429D01*
X143497905Y-64854667D01*
X143401143Y-64806286D01*
X143207620Y-64806286D01*
X143110858Y-64854667D01*
X143062477Y-64951429D01*
X143062477Y-65048190D01*
X143546286Y-65144952D01*
X142627048Y-65483619D02*
X142627048Y-64806286D01*
X142627048Y-64999810D02*
X142578667Y-64903048D01*
X142530286Y-64854667D01*
X142433524Y-64806286D01*
X142336763Y-64806286D01*
X155290761Y-62665429D02*
X154952095Y-62665429D01*
X154806952Y-63197619D02*
X155290761Y-63197619D01*
X155290761Y-62181619D01*
X154806952Y-62181619D01*
X154468285Y-63197619D02*
X153936095Y-62520286D01*
X154468285Y-62520286D02*
X153936095Y-63197619D01*
X153549047Y-62520286D02*
X153549047Y-63536286D01*
X153549047Y-62568667D02*
X153452285Y-62520286D01*
X153258762Y-62520286D01*
X153162000Y-62568667D01*
X153113619Y-62617048D01*
X153065238Y-62713810D01*
X153065238Y-63004095D01*
X153113619Y-63100857D01*
X153162000Y-63149238D01*
X153258762Y-63197619D01*
X153452285Y-63197619D01*
X153549047Y-63149238D01*
X152484666Y-63197619D02*
X152581428Y-63149238D01*
X152629809Y-63052476D01*
X152629809Y-62181619D01*
X151952476Y-63197619D02*
X152049238Y-63149238D01*
X152097619Y-63100857D01*
X152146000Y-63004095D01*
X152146000Y-62713810D01*
X152097619Y-62617048D01*
X152049238Y-62568667D01*
X151952476Y-62520286D01*
X151807334Y-62520286D01*
X151710572Y-62568667D01*
X151662191Y-62617048D01*
X151613810Y-62713810D01*
X151613810Y-63004095D01*
X151662191Y-63100857D01*
X151710572Y-63149238D01*
X151807334Y-63197619D01*
X151952476Y-63197619D01*
X151178381Y-63197619D02*
X151178381Y-62520286D01*
X151178381Y-62713810D02*
X151130000Y-62617048D01*
X151081619Y-62568667D01*
X150984857Y-62520286D01*
X150888096Y-62520286D01*
X150162382Y-63149238D02*
X150259144Y-63197619D01*
X150452667Y-63197619D01*
X150549429Y-63149238D01*
X150597810Y-63052476D01*
X150597810Y-62665429D01*
X150549429Y-62568667D01*
X150452667Y-62520286D01*
X150259144Y-62520286D01*
X150162382Y-62568667D01*
X150114001Y-62665429D01*
X150114001Y-62762190D01*
X150597810Y-62858952D01*
X149678572Y-62665429D02*
X149339906Y-62665429D01*
X149194763Y-63197619D02*
X149678572Y-63197619D01*
X149678572Y-62181619D01*
X149194763Y-62181619D01*
X148759334Y-63197619D02*
X148759334Y-62520286D01*
X148759334Y-62617048D02*
X148710953Y-62568667D01*
X148614191Y-62520286D01*
X148469049Y-62520286D01*
X148372287Y-62568667D01*
X148323906Y-62665429D01*
X148323906Y-63197619D01*
X148323906Y-62665429D02*
X148275525Y-62568667D01*
X148178763Y-62520286D01*
X148033620Y-62520286D01*
X147936858Y-62568667D01*
X147888477Y-62665429D01*
X147888477Y-63197619D01*
X147404667Y-63197619D02*
X147404667Y-62181619D01*
X147404667Y-62568667D02*
X147307905Y-62520286D01*
X147114382Y-62520286D01*
X147017620Y-62568667D01*
X146969239Y-62617048D01*
X146920858Y-62713810D01*
X146920858Y-63004095D01*
X146969239Y-63100857D01*
X147017620Y-63149238D01*
X147114382Y-63197619D01*
X147307905Y-63197619D01*
X147404667Y-63149238D01*
X146098382Y-63149238D02*
X146195144Y-63197619D01*
X146388667Y-63197619D01*
X146485429Y-63149238D01*
X146533810Y-63052476D01*
X146533810Y-62665429D01*
X146485429Y-62568667D01*
X146388667Y-62520286D01*
X146195144Y-62520286D01*
X146098382Y-62568667D01*
X146050001Y-62665429D01*
X146050001Y-62762190D01*
X146533810Y-62858952D01*
X145179144Y-63197619D02*
X145179144Y-62181619D01*
X145179144Y-63149238D02*
X145275906Y-63197619D01*
X145469429Y-63197619D01*
X145566191Y-63149238D01*
X145614572Y-63100857D01*
X145662953Y-63004095D01*
X145662953Y-62713810D01*
X145614572Y-62617048D01*
X145566191Y-62568667D01*
X145469429Y-62520286D01*
X145275906Y-62520286D01*
X145179144Y-62568667D01*
X144259906Y-63197619D02*
X144259906Y-62181619D01*
X144259906Y-63149238D02*
X144356668Y-63197619D01*
X144550191Y-63197619D01*
X144646953Y-63149238D01*
X144695334Y-63100857D01*
X144743715Y-63004095D01*
X144743715Y-62713810D01*
X144695334Y-62617048D01*
X144646953Y-62568667D01*
X144550191Y-62520286D01*
X144356668Y-62520286D01*
X144259906Y-62568667D01*
X143389049Y-63149238D02*
X143485811Y-63197619D01*
X143679334Y-63197619D01*
X143776096Y-63149238D01*
X143824477Y-63052476D01*
X143824477Y-62665429D01*
X143776096Y-62568667D01*
X143679334Y-62520286D01*
X143485811Y-62520286D01*
X143389049Y-62568667D01*
X143340668Y-62665429D01*
X143340668Y-62762190D01*
X143824477Y-62858952D01*
X142469811Y-63197619D02*
X142469811Y-62181619D01*
X142469811Y-63149238D02*
X142566573Y-63197619D01*
X142760096Y-63197619D01*
X142856858Y-63149238D01*
X142905239Y-63100857D01*
X142953620Y-63004095D01*
X142953620Y-62713810D01*
X142905239Y-62617048D01*
X142856858Y-62568667D01*
X142760096Y-62520286D01*
X142566573Y-62520286D01*
X142469811Y-62568667D01*
X141986001Y-63100857D02*
X141937620Y-63149238D01*
X141986001Y-63197619D01*
X142034382Y-63149238D01*
X141986001Y-63100857D01*
X141986001Y-63197619D01*
X141066763Y-63149238D02*
X141163525Y-63197619D01*
X141357048Y-63197619D01*
X141453810Y-63149238D01*
X141502191Y-63100857D01*
X141550572Y-63004095D01*
X141550572Y-62713810D01*
X141502191Y-62617048D01*
X141453810Y-62568667D01*
X141357048Y-62520286D01*
X141163525Y-62520286D01*
X141066763Y-62568667D01*
X140486191Y-63197619D02*
X140582953Y-63149238D01*
X140631334Y-63100857D01*
X140679715Y-63004095D01*
X140679715Y-62713810D01*
X140631334Y-62617048D01*
X140582953Y-62568667D01*
X140486191Y-62520286D01*
X140341049Y-62520286D01*
X140244287Y-62568667D01*
X140195906Y-62617048D01*
X140147525Y-62713810D01*
X140147525Y-63004095D01*
X140195906Y-63100857D01*
X140244287Y-63149238D01*
X140341049Y-63197619D01*
X140486191Y-63197619D01*
X139712096Y-63197619D02*
X139712096Y-62520286D01*
X139712096Y-62617048D02*
X139663715Y-62568667D01*
X139566953Y-62520286D01*
X139421811Y-62520286D01*
X139325049Y-62568667D01*
X139276668Y-62665429D01*
X139276668Y-63197619D01*
X139276668Y-62665429D02*
X139228287Y-62568667D01*
X139131525Y-62520286D01*
X138986382Y-62520286D01*
X138889620Y-62568667D01*
X138841239Y-62665429D01*
X138841239Y-63197619D01*
D11*
X137160000Y-55245000D02*
X135255000Y-55245000D01*
X135255000Y-55245000D02*
X135255000Y-70485000D01*
D13*
X146220000Y-67880000D02*
X146320000Y-67780000D01*
X146320000Y-67780000D02*
X148320000Y-67780000D01*
X148320000Y-67780000D02*
X148420000Y-67880000D01*
X146320000Y-69380000D02*
X146220000Y-69280000D01*
X147420000Y-69380000D02*
X148320000Y-69380000D01*
X148320000Y-69380000D02*
X148420000Y-69280000D01*
X146320000Y-69380000D02*
X147420000Y-69380000D01*
X148420000Y-57850000D02*
X148320000Y-57950000D01*
X148320000Y-57950000D02*
X146320000Y-57950000D01*
X146320000Y-57950000D02*
X146220000Y-57850000D01*
X148320000Y-56350000D02*
X148420000Y-56450000D01*
X147220000Y-56350000D02*
X146320000Y-56350000D01*
X146320000Y-56350000D02*
X146220000Y-56450000D01*
X148320000Y-56350000D02*
X147220000Y-56350000D01*
D14*
G36*
X155534360Y-62801500D02*
X155541980Y-63129160D01*
X155557220Y-63362840D01*
X155592780Y-63543180D01*
X155648660Y-63708280D01*
X155691840Y-63802260D01*
X155991560Y-64302640D01*
X156075380Y-64391540D01*
X156075380Y-61640720D01*
X156403040Y-61640720D01*
X156596080Y-61643260D01*
X156690060Y-61668660D01*
X156725620Y-61734700D01*
X156730700Y-61823600D01*
X156712920Y-61986160D01*
X156644340Y-62064900D01*
X156494480Y-62082680D01*
X156377640Y-62077600D01*
X156210000Y-62057280D01*
X156128720Y-62003940D01*
X156100780Y-61887100D01*
X156095700Y-61849000D01*
X156075380Y-61640720D01*
X156075380Y-64391540D01*
X156083000Y-64401700D01*
X156083000Y-63832740D01*
X156083000Y-63609220D01*
X156083000Y-63383160D01*
X156083000Y-63253620D01*
X156083000Y-63027560D01*
X156083000Y-62801500D01*
X156083000Y-62671960D01*
X156083000Y-62448440D01*
X156083000Y-62222380D01*
X156405580Y-62222380D01*
X156730700Y-62222380D01*
X156730700Y-62448440D01*
X156730700Y-62671960D01*
X156405580Y-62671960D01*
X156083000Y-62671960D01*
X156083000Y-62801500D01*
X156405580Y-62801500D01*
X156730700Y-62801500D01*
X156730700Y-63027560D01*
X156730700Y-63253620D01*
X156405580Y-63253620D01*
X156083000Y-63253620D01*
X156083000Y-63383160D01*
X156405580Y-63383160D01*
X156730700Y-63383160D01*
X156730700Y-63609220D01*
X156730700Y-63832740D01*
X156405580Y-63832740D01*
X156083000Y-63832740D01*
X156083000Y-64401700D01*
X156364940Y-64701420D01*
X156794200Y-64988440D01*
X156794200Y-64190880D01*
X156794200Y-61577220D01*
X156794200Y-61249560D01*
X156794200Y-60921900D01*
X157002480Y-60942220D01*
X157129480Y-60962540D01*
X157195520Y-61018420D01*
X157223460Y-61142880D01*
X157233620Y-61269880D01*
X157251400Y-61577220D01*
X157022800Y-61577220D01*
X156794200Y-61577220D01*
X156794200Y-64190880D01*
X156799280Y-64010540D01*
X156832300Y-63926720D01*
X156918660Y-63898780D01*
X157020260Y-63898780D01*
X157159960Y-63903860D01*
X157223460Y-63944500D01*
X157243780Y-64058800D01*
X157243780Y-64190880D01*
X157241240Y-64368680D01*
X157208220Y-64449960D01*
X157121860Y-64477900D01*
X157020260Y-64480440D01*
X156880560Y-64472820D01*
X156814520Y-64432180D01*
X156796740Y-64317880D01*
X156794200Y-64190880D01*
X156794200Y-64988440D01*
X156824680Y-65011300D01*
X157226000Y-65189100D01*
X157373320Y-65232280D01*
X157373320Y-64190880D01*
X157373320Y-61577220D01*
X157373320Y-61254640D01*
X157373320Y-60929520D01*
X157599380Y-60929520D01*
X157825440Y-60929520D01*
X157825440Y-61254640D01*
X157825440Y-61577220D01*
X157599380Y-61577220D01*
X157373320Y-61577220D01*
X157373320Y-64190880D01*
X157380940Y-64010540D01*
X157413960Y-63926720D01*
X157500320Y-63898780D01*
X157599380Y-63898780D01*
X157739080Y-63903860D01*
X157805120Y-63944500D01*
X157825440Y-64058800D01*
X157825440Y-64190880D01*
X157820360Y-64368680D01*
X157787340Y-64449960D01*
X157700980Y-64477900D01*
X157599380Y-64480440D01*
X157462220Y-64472820D01*
X157396180Y-64432180D01*
X157375860Y-64317880D01*
X157373320Y-64190880D01*
X157373320Y-65232280D01*
X157462220Y-65262760D01*
X157673040Y-65303400D01*
X157919420Y-65313560D01*
X157970220Y-65311020D01*
X157970220Y-64190880D01*
X157975300Y-64010540D01*
X157988000Y-63969900D01*
X157988000Y-61363860D01*
X157988000Y-61254640D01*
X157993080Y-61074300D01*
X158028640Y-60985400D01*
X158117540Y-60952380D01*
X158196280Y-60942220D01*
X158404560Y-60921900D01*
X158404560Y-61254640D01*
X158404560Y-61584840D01*
X158196280Y-61561980D01*
X158066740Y-61544200D01*
X158008320Y-61490860D01*
X157988000Y-61363860D01*
X157988000Y-63969900D01*
X158003240Y-63926720D01*
X158089600Y-63898780D01*
X158186120Y-63898780D01*
X158323280Y-63903860D01*
X158386780Y-63947040D01*
X158404560Y-64061340D01*
X158404560Y-64190880D01*
X158402020Y-64368680D01*
X158369000Y-64449960D01*
X158282640Y-64477900D01*
X158191200Y-64480440D01*
X158059120Y-64472820D01*
X157995620Y-64427100D01*
X157975300Y-64312800D01*
X157970220Y-64190880D01*
X157970220Y-65311020D01*
X158201360Y-65305940D01*
X158521400Y-65283080D01*
X158582360Y-65270380D01*
X158582360Y-64320420D01*
X158584900Y-64287400D01*
X158584900Y-61010800D01*
X158628080Y-60972700D01*
X158757620Y-60944760D01*
X158772860Y-60944760D01*
X158981140Y-60921900D01*
X158998920Y-61295280D01*
X159019240Y-61668660D01*
X159052260Y-61666120D01*
X159052260Y-61351160D01*
X159052260Y-61092080D01*
X159082740Y-61059060D01*
X159115760Y-61092080D01*
X159082740Y-61122560D01*
X159052260Y-61092080D01*
X159052260Y-61351160D01*
X159082740Y-61318140D01*
X159115760Y-61351160D01*
X159082740Y-61384180D01*
X159052260Y-61351160D01*
X159052260Y-61666120D01*
X159357060Y-61648340D01*
X159555180Y-61640720D01*
X159656780Y-61658500D01*
X159692340Y-61716920D01*
X159697420Y-61823600D01*
X159687260Y-61948060D01*
X159631380Y-62009020D01*
X159494220Y-62034420D01*
X159423100Y-62039500D01*
X159212280Y-62049660D01*
X159100520Y-62034420D01*
X159057340Y-61981080D01*
X159052260Y-61927740D01*
X159024320Y-61846460D01*
X159004000Y-61841380D01*
X158854140Y-61836300D01*
X158803340Y-61755020D01*
X158813500Y-61704220D01*
X158810960Y-61602620D01*
X158722060Y-61577220D01*
X158640780Y-61551820D01*
X158607760Y-61457840D01*
X158600140Y-61318140D01*
X158597600Y-61140340D01*
X158587440Y-61026040D01*
X158584900Y-61010800D01*
X158584900Y-64287400D01*
X158589980Y-64190880D01*
X158610300Y-64010540D01*
X158653480Y-63924180D01*
X158739840Y-63898780D01*
X158800800Y-63898780D01*
X158915100Y-63906400D01*
X158968440Y-63957200D01*
X158986220Y-64084200D01*
X158986220Y-64190880D01*
X158983680Y-64368680D01*
X158950660Y-64449960D01*
X158864300Y-64477900D01*
X158777940Y-64480440D01*
X158650940Y-64472820D01*
X158592520Y-64432180D01*
X158582360Y-64320420D01*
X158582360Y-65270380D01*
X158762700Y-65242440D01*
X158983680Y-65171320D01*
X159044640Y-65140840D01*
X159044640Y-62222380D01*
X159369760Y-62222380D01*
X159562800Y-62224920D01*
X159659320Y-62250320D01*
X159692340Y-62316360D01*
X159697420Y-62407800D01*
X159679640Y-62539880D01*
X159605980Y-62608460D01*
X159453580Y-62636400D01*
X159283400Y-62633860D01*
X159141160Y-62611000D01*
X159080200Y-62532260D01*
X159064960Y-62425580D01*
X159044640Y-62222380D01*
X159044640Y-65140840D01*
X159082740Y-65125600D01*
X159082740Y-63609220D01*
X159082740Y-63027560D01*
X159092900Y-62910720D01*
X159141160Y-62849760D01*
X159265620Y-62824360D01*
X159390080Y-62814200D01*
X159697420Y-62793880D01*
X159697420Y-63027560D01*
X159697420Y-63261240D01*
X159390080Y-63240920D01*
X159204660Y-63223140D01*
X159115760Y-63187580D01*
X159087820Y-63108840D01*
X159082740Y-63027560D01*
X159082740Y-63609220D01*
X159092900Y-63489840D01*
X159141160Y-63431420D01*
X159265620Y-63403480D01*
X159390080Y-63393320D01*
X159697420Y-63375540D01*
X159697420Y-63609220D01*
X159697420Y-63840360D01*
X159390080Y-63822580D01*
X159204660Y-63804800D01*
X159115760Y-63766700D01*
X159087820Y-63687960D01*
X159082740Y-63609220D01*
X159082740Y-65125600D01*
X159194500Y-65074800D01*
X159420560Y-64952880D01*
X159608520Y-64833500D01*
X159722820Y-64742060D01*
X159793940Y-64676020D01*
X159859980Y-64660780D01*
X159953960Y-64701420D01*
X159953960Y-62009020D01*
X159997140Y-61658500D01*
X160141920Y-61325760D01*
X160388300Y-61033660D01*
X160525460Y-60924440D01*
X160675320Y-60838080D01*
X160837880Y-60789820D01*
X161058860Y-60772040D01*
X161218880Y-60769500D01*
X161472880Y-60774580D01*
X161645600Y-60797440D01*
X161780220Y-60855860D01*
X161919920Y-60957460D01*
X161932620Y-60967620D01*
X162151060Y-61188600D01*
X162328860Y-61462920D01*
X162443160Y-61742320D01*
X162471100Y-61927740D01*
X162443160Y-62189360D01*
X162374580Y-62448440D01*
X162275520Y-62651640D01*
X162229800Y-62710060D01*
X162163760Y-62791340D01*
X162189160Y-62857380D01*
X162283140Y-62931040D01*
X162384740Y-63022480D01*
X162552380Y-63187580D01*
X162760660Y-63400940D01*
X162989260Y-63644780D01*
X163017200Y-63675260D01*
X163593780Y-64302640D01*
X163438840Y-64427100D01*
X163283900Y-64554100D01*
X162859720Y-64114680D01*
X162633660Y-63873380D01*
X162405060Y-63629540D01*
X162214560Y-63416180D01*
X162171380Y-63365380D01*
X161907220Y-63058040D01*
X161676080Y-63157100D01*
X161300160Y-63246000D01*
X160916620Y-63210440D01*
X160743900Y-63154560D01*
X160406080Y-62951360D01*
X160162240Y-62677040D01*
X160009840Y-62357000D01*
X159953960Y-62009020D01*
X159953960Y-64701420D01*
X159956500Y-64703960D01*
X160121600Y-64815720D01*
X160136840Y-64830960D01*
X160609280Y-65092580D01*
X161132520Y-65257680D01*
X161676080Y-65323720D01*
X162206940Y-65285620D01*
X162600640Y-65176400D01*
X163113720Y-64917320D01*
X163545520Y-64569340D01*
X163880800Y-64145160D01*
X164117020Y-63660020D01*
X164246560Y-63131700D01*
X164259260Y-62567820D01*
X164216080Y-62273180D01*
X164104320Y-61854080D01*
X163931600Y-61495940D01*
X163677600Y-61155580D01*
X163560760Y-61026040D01*
X163154360Y-60683140D01*
X162684460Y-60431680D01*
X162176460Y-60284360D01*
X161650680Y-60233560D01*
X161129980Y-60286900D01*
X160632140Y-60441840D01*
X160182560Y-60700920D01*
X160080960Y-60782200D01*
X159893000Y-60939680D01*
X159682180Y-60782200D01*
X159217360Y-60497720D01*
X158699200Y-60317380D01*
X158478220Y-60274200D01*
X157916880Y-60238640D01*
X157375860Y-60327540D01*
X156870400Y-60523120D01*
X156418280Y-60822840D01*
X156034740Y-61221620D01*
X155737560Y-61701680D01*
X155735020Y-61704220D01*
X155643580Y-61907420D01*
X155585160Y-62077600D01*
X155552140Y-62257940D01*
X155539440Y-62484000D01*
X155534360Y-62801500D01*
X155534360Y-62801500D01*
X155534360Y-62801500D01*
G37*
X155534360Y-62801500D02*
X155541980Y-63129160D01*
X155557220Y-63362840D01*
X155592780Y-63543180D01*
X155648660Y-63708280D01*
X155691840Y-63802260D01*
X155991560Y-64302640D01*
X156075380Y-64391540D01*
X156075380Y-61640720D01*
X156403040Y-61640720D01*
X156596080Y-61643260D01*
X156690060Y-61668660D01*
X156725620Y-61734700D01*
X156730700Y-61823600D01*
X156712920Y-61986160D01*
X156644340Y-62064900D01*
X156494480Y-62082680D01*
X156377640Y-62077600D01*
X156210000Y-62057280D01*
X156128720Y-62003940D01*
X156100780Y-61887100D01*
X156095700Y-61849000D01*
X156075380Y-61640720D01*
X156075380Y-64391540D01*
X156083000Y-64401700D01*
X156083000Y-63832740D01*
X156083000Y-63609220D01*
X156083000Y-63383160D01*
X156083000Y-63253620D01*
X156083000Y-63027560D01*
X156083000Y-62801500D01*
X156083000Y-62671960D01*
X156083000Y-62448440D01*
X156083000Y-62222380D01*
X156405580Y-62222380D01*
X156730700Y-62222380D01*
X156730700Y-62448440D01*
X156730700Y-62671960D01*
X156405580Y-62671960D01*
X156083000Y-62671960D01*
X156083000Y-62801500D01*
X156405580Y-62801500D01*
X156730700Y-62801500D01*
X156730700Y-63027560D01*
X156730700Y-63253620D01*
X156405580Y-63253620D01*
X156083000Y-63253620D01*
X156083000Y-63383160D01*
X156405580Y-63383160D01*
X156730700Y-63383160D01*
X156730700Y-63609220D01*
X156730700Y-63832740D01*
X156405580Y-63832740D01*
X156083000Y-63832740D01*
X156083000Y-64401700D01*
X156364940Y-64701420D01*
X156794200Y-64988440D01*
X156794200Y-64190880D01*
X156794200Y-61577220D01*
X156794200Y-61249560D01*
X156794200Y-60921900D01*
X157002480Y-60942220D01*
X157129480Y-60962540D01*
X157195520Y-61018420D01*
X157223460Y-61142880D01*
X157233620Y-61269880D01*
X157251400Y-61577220D01*
X157022800Y-61577220D01*
X156794200Y-61577220D01*
X156794200Y-64190880D01*
X156799280Y-64010540D01*
X156832300Y-63926720D01*
X156918660Y-63898780D01*
X157020260Y-63898780D01*
X157159960Y-63903860D01*
X157223460Y-63944500D01*
X157243780Y-64058800D01*
X157243780Y-64190880D01*
X157241240Y-64368680D01*
X157208220Y-64449960D01*
X157121860Y-64477900D01*
X157020260Y-64480440D01*
X156880560Y-64472820D01*
X156814520Y-64432180D01*
X156796740Y-64317880D01*
X156794200Y-64190880D01*
X156794200Y-64988440D01*
X156824680Y-65011300D01*
X157226000Y-65189100D01*
X157373320Y-65232280D01*
X157373320Y-64190880D01*
X157373320Y-61577220D01*
X157373320Y-61254640D01*
X157373320Y-60929520D01*
X157599380Y-60929520D01*
X157825440Y-60929520D01*
X157825440Y-61254640D01*
X157825440Y-61577220D01*
X157599380Y-61577220D01*
X157373320Y-61577220D01*
X157373320Y-64190880D01*
X157380940Y-64010540D01*
X157413960Y-63926720D01*
X157500320Y-63898780D01*
X157599380Y-63898780D01*
X157739080Y-63903860D01*
X157805120Y-63944500D01*
X157825440Y-64058800D01*
X157825440Y-64190880D01*
X157820360Y-64368680D01*
X157787340Y-64449960D01*
X157700980Y-64477900D01*
X157599380Y-64480440D01*
X157462220Y-64472820D01*
X157396180Y-64432180D01*
X157375860Y-64317880D01*
X157373320Y-64190880D01*
X157373320Y-65232280D01*
X157462220Y-65262760D01*
X157673040Y-65303400D01*
X157919420Y-65313560D01*
X157970220Y-65311020D01*
X157970220Y-64190880D01*
X157975300Y-64010540D01*
X157988000Y-63969900D01*
X157988000Y-61363860D01*
X157988000Y-61254640D01*
X157993080Y-61074300D01*
X158028640Y-60985400D01*
X158117540Y-60952380D01*
X158196280Y-60942220D01*
X158404560Y-60921900D01*
X158404560Y-61254640D01*
X158404560Y-61584840D01*
X158196280Y-61561980D01*
X158066740Y-61544200D01*
X158008320Y-61490860D01*
X157988000Y-61363860D01*
X157988000Y-63969900D01*
X158003240Y-63926720D01*
X158089600Y-63898780D01*
X158186120Y-63898780D01*
X158323280Y-63903860D01*
X158386780Y-63947040D01*
X158404560Y-64061340D01*
X158404560Y-64190880D01*
X158402020Y-64368680D01*
X158369000Y-64449960D01*
X158282640Y-64477900D01*
X158191200Y-64480440D01*
X158059120Y-64472820D01*
X157995620Y-64427100D01*
X157975300Y-64312800D01*
X157970220Y-64190880D01*
X157970220Y-65311020D01*
X158201360Y-65305940D01*
X158521400Y-65283080D01*
X158582360Y-65270380D01*
X158582360Y-64320420D01*
X158584900Y-64287400D01*
X158584900Y-61010800D01*
X158628080Y-60972700D01*
X158757620Y-60944760D01*
X158772860Y-60944760D01*
X158981140Y-60921900D01*
X158998920Y-61295280D01*
X159019240Y-61668660D01*
X159052260Y-61666120D01*
X159052260Y-61351160D01*
X159052260Y-61092080D01*
X159082740Y-61059060D01*
X159115760Y-61092080D01*
X159082740Y-61122560D01*
X159052260Y-61092080D01*
X159052260Y-61351160D01*
X159082740Y-61318140D01*
X159115760Y-61351160D01*
X159082740Y-61384180D01*
X159052260Y-61351160D01*
X159052260Y-61666120D01*
X159357060Y-61648340D01*
X159555180Y-61640720D01*
X159656780Y-61658500D01*
X159692340Y-61716920D01*
X159697420Y-61823600D01*
X159687260Y-61948060D01*
X159631380Y-62009020D01*
X159494220Y-62034420D01*
X159423100Y-62039500D01*
X159212280Y-62049660D01*
X159100520Y-62034420D01*
X159057340Y-61981080D01*
X159052260Y-61927740D01*
X159024320Y-61846460D01*
X159004000Y-61841380D01*
X158854140Y-61836300D01*
X158803340Y-61755020D01*
X158813500Y-61704220D01*
X158810960Y-61602620D01*
X158722060Y-61577220D01*
X158640780Y-61551820D01*
X158607760Y-61457840D01*
X158600140Y-61318140D01*
X158597600Y-61140340D01*
X158587440Y-61026040D01*
X158584900Y-61010800D01*
X158584900Y-64287400D01*
X158589980Y-64190880D01*
X158610300Y-64010540D01*
X158653480Y-63924180D01*
X158739840Y-63898780D01*
X158800800Y-63898780D01*
X158915100Y-63906400D01*
X158968440Y-63957200D01*
X158986220Y-64084200D01*
X158986220Y-64190880D01*
X158983680Y-64368680D01*
X158950660Y-64449960D01*
X158864300Y-64477900D01*
X158777940Y-64480440D01*
X158650940Y-64472820D01*
X158592520Y-64432180D01*
X158582360Y-64320420D01*
X158582360Y-65270380D01*
X158762700Y-65242440D01*
X158983680Y-65171320D01*
X159044640Y-65140840D01*
X159044640Y-62222380D01*
X159369760Y-62222380D01*
X159562800Y-62224920D01*
X159659320Y-62250320D01*
X159692340Y-62316360D01*
X159697420Y-62407800D01*
X159679640Y-62539880D01*
X159605980Y-62608460D01*
X159453580Y-62636400D01*
X159283400Y-62633860D01*
X159141160Y-62611000D01*
X159080200Y-62532260D01*
X159064960Y-62425580D01*
X159044640Y-62222380D01*
X159044640Y-65140840D01*
X159082740Y-65125600D01*
X159082740Y-63609220D01*
X159082740Y-63027560D01*
X159092900Y-62910720D01*
X159141160Y-62849760D01*
X159265620Y-62824360D01*
X159390080Y-62814200D01*
X159697420Y-62793880D01*
X159697420Y-63027560D01*
X159697420Y-63261240D01*
X159390080Y-63240920D01*
X159204660Y-63223140D01*
X159115760Y-63187580D01*
X159087820Y-63108840D01*
X159082740Y-63027560D01*
X159082740Y-63609220D01*
X159092900Y-63489840D01*
X159141160Y-63431420D01*
X159265620Y-63403480D01*
X159390080Y-63393320D01*
X159697420Y-63375540D01*
X159697420Y-63609220D01*
X159697420Y-63840360D01*
X159390080Y-63822580D01*
X159204660Y-63804800D01*
X159115760Y-63766700D01*
X159087820Y-63687960D01*
X159082740Y-63609220D01*
X159082740Y-65125600D01*
X159194500Y-65074800D01*
X159420560Y-64952880D01*
X159608520Y-64833500D01*
X159722820Y-64742060D01*
X159793940Y-64676020D01*
X159859980Y-64660780D01*
X159953960Y-64701420D01*
X159953960Y-62009020D01*
X159997140Y-61658500D01*
X160141920Y-61325760D01*
X160388300Y-61033660D01*
X160525460Y-60924440D01*
X160675320Y-60838080D01*
X160837880Y-60789820D01*
X161058860Y-60772040D01*
X161218880Y-60769500D01*
X161472880Y-60774580D01*
X161645600Y-60797440D01*
X161780220Y-60855860D01*
X161919920Y-60957460D01*
X161932620Y-60967620D01*
X162151060Y-61188600D01*
X162328860Y-61462920D01*
X162443160Y-61742320D01*
X162471100Y-61927740D01*
X162443160Y-62189360D01*
X162374580Y-62448440D01*
X162275520Y-62651640D01*
X162229800Y-62710060D01*
X162163760Y-62791340D01*
X162189160Y-62857380D01*
X162283140Y-62931040D01*
X162384740Y-63022480D01*
X162552380Y-63187580D01*
X162760660Y-63400940D01*
X162989260Y-63644780D01*
X163017200Y-63675260D01*
X163593780Y-64302640D01*
X163438840Y-64427100D01*
X163283900Y-64554100D01*
X162859720Y-64114680D01*
X162633660Y-63873380D01*
X162405060Y-63629540D01*
X162214560Y-63416180D01*
X162171380Y-63365380D01*
X161907220Y-63058040D01*
X161676080Y-63157100D01*
X161300160Y-63246000D01*
X160916620Y-63210440D01*
X160743900Y-63154560D01*
X160406080Y-62951360D01*
X160162240Y-62677040D01*
X160009840Y-62357000D01*
X159953960Y-62009020D01*
X159953960Y-64701420D01*
X159956500Y-64703960D01*
X160121600Y-64815720D01*
X160136840Y-64830960D01*
X160609280Y-65092580D01*
X161132520Y-65257680D01*
X161676080Y-65323720D01*
X162206940Y-65285620D01*
X162600640Y-65176400D01*
X163113720Y-64917320D01*
X163545520Y-64569340D01*
X163880800Y-64145160D01*
X164117020Y-63660020D01*
X164246560Y-63131700D01*
X164259260Y-62567820D01*
X164216080Y-62273180D01*
X164104320Y-61854080D01*
X163931600Y-61495940D01*
X163677600Y-61155580D01*
X163560760Y-61026040D01*
X163154360Y-60683140D01*
X162684460Y-60431680D01*
X162176460Y-60284360D01*
X161650680Y-60233560D01*
X161129980Y-60286900D01*
X160632140Y-60441840D01*
X160182560Y-60700920D01*
X160080960Y-60782200D01*
X159893000Y-60939680D01*
X159682180Y-60782200D01*
X159217360Y-60497720D01*
X158699200Y-60317380D01*
X158478220Y-60274200D01*
X157916880Y-60238640D01*
X157375860Y-60327540D01*
X156870400Y-60523120D01*
X156418280Y-60822840D01*
X156034740Y-61221620D01*
X155737560Y-61701680D01*
X155735020Y-61704220D01*
X155643580Y-61907420D01*
X155585160Y-62077600D01*
X155552140Y-62257940D01*
X155539440Y-62484000D01*
X155534360Y-62801500D01*
X155534360Y-62801500D01*
G36*
X160355280Y-61861700D02*
X160373060Y-62156340D01*
X160479740Y-62433200D01*
X160662620Y-62661800D01*
X160906460Y-62814200D01*
X161180780Y-62865000D01*
X161348420Y-62837060D01*
X161541460Y-62765940D01*
X161561780Y-62753240D01*
X161825940Y-62555120D01*
X161991040Y-62303660D01*
X162057080Y-62019180D01*
X162024060Y-61729620D01*
X161886900Y-61462920D01*
X161650680Y-61244480D01*
X161622740Y-61226700D01*
X161348420Y-61132720D01*
X161053780Y-61142880D01*
X160771840Y-61244480D01*
X160540700Y-61427360D01*
X160441640Y-61569600D01*
X160355280Y-61861700D01*
X160355280Y-61861700D01*
X160355280Y-61861700D01*
G37*
X160355280Y-61861700D02*
X160373060Y-62156340D01*
X160479740Y-62433200D01*
X160662620Y-62661800D01*
X160906460Y-62814200D01*
X161180780Y-62865000D01*
X161348420Y-62837060D01*
X161541460Y-62765940D01*
X161561780Y-62753240D01*
X161825940Y-62555120D01*
X161991040Y-62303660D01*
X162057080Y-62019180D01*
X162024060Y-61729620D01*
X161886900Y-61462920D01*
X161650680Y-61244480D01*
X161622740Y-61226700D01*
X161348420Y-61132720D01*
X161053780Y-61142880D01*
X160771840Y-61244480D01*
X160540700Y-61427360D01*
X160441640Y-61569600D01*
X160355280Y-61861700D01*
X160355280Y-61861700D01*
D11*
X149627167Y-68232262D02*
X149627167Y-68685833D01*
X149657405Y-68776548D01*
X149717881Y-68837024D01*
X149808596Y-68867262D01*
X149869072Y-68867262D01*
X149324786Y-68867262D02*
X149324786Y-68232262D01*
X149082881Y-68232262D01*
X149022405Y-68262500D01*
X148992166Y-68292738D01*
X148961928Y-68353214D01*
X148961928Y-68443929D01*
X148992166Y-68504405D01*
X149022405Y-68534643D01*
X149082881Y-68564881D01*
X149324786Y-68564881D01*
X148357166Y-68867262D02*
X148720024Y-68867262D01*
X148538595Y-68867262D02*
X148538595Y-68232262D01*
X148599071Y-68322976D01*
X148659547Y-68383452D01*
X148720024Y-68413690D01*
X149754167Y-56802262D02*
X149754167Y-57255833D01*
X149784405Y-57346548D01*
X149844881Y-57407024D01*
X149935596Y-57437262D01*
X149996072Y-57437262D01*
X149451786Y-57437262D02*
X149451786Y-56802262D01*
X149209881Y-56802262D01*
X149149405Y-56832500D01*
X149119166Y-56862738D01*
X149088928Y-56923214D01*
X149088928Y-57013929D01*
X149119166Y-57074405D01*
X149149405Y-57104643D01*
X149209881Y-57134881D01*
X149451786Y-57134881D01*
X148877262Y-56802262D02*
X148484166Y-56802262D01*
X148695833Y-57044167D01*
X148605119Y-57044167D01*
X148544643Y-57074405D01*
X148514405Y-57104643D01*
X148484166Y-57165119D01*
X148484166Y-57316310D01*
X148514405Y-57376786D01*
X148544643Y-57407024D01*
X148605119Y-57437262D01*
X148786547Y-57437262D01*
X148847024Y-57407024D01*
X148877262Y-57376786D01*
M02*
